<?xml version="1.0" encoding="utf-8"?>
<!-- Generator: Adobe Illustrator 26.3.1, SVG Export Plug-In . SVG Version: 6.00 Build 0)  -->
<svg version="1.1" id="a" xmlns="http://www.w3.org/2000/svg" xmlns:xlink="http://www.w3.org/1999/xlink" x="0px" y="0px" viewBox="0 0 42 36" style="enable-background:new 0 0 41.7 36;" xml:space="preserve" width="40px" height="35px" preserveAspectRatio="none">
<style type="text/css">
	.st0{fill:none;stroke:#FFFFFF;stroke-width:2;stroke-linecap:round;stroke-linejoin:round;}
</style>
<g id="g" transform="translate(-0.499 -5)">
	<path id="h" class="st0" d="M39,14.1c-0.4-1.6-1.7-2.9-3.3-3.4C32.9,10,21.3,10,21.3,10S9.7,10,6.8,10.8c-1.6,0.5-2.9,1.7-3.3,3.4
		C3,17.1,2.8,20.1,2.8,23c0,3,0.2,6,0.8,9c0.4,1.6,1.7,2.8,3.3,3.2C9.7,36,21.3,36,21.3,36s11.6,0,14.5-0.8c1.6-0.5,2.9-1.7,3.3-3.4
		c0.5-2.8,0.7-5.8,0.7-8.8S39.6,17,39,14.1L39,14.1L39,14.1z"/>
	<path id="i" class="st0" d="M18.1,27.9l8.6-4.9l-8.6-4.9C18.1,18.1,18.1,27.9,18.1,27.9z"/>
</g>
</svg>
